<svg width="26" height="28" viewBox="0 0 26 28" fill="none" xmlns="http://www.w3.org/2000/svg">
<path d="M4.76812 28C3.89396 28 3.14563 27.6954 2.52313 27.0861C1.90062 26.4769 1.58937 25.7444 1.58937 24.8889V4.66667C1.13905 4.66667 0.761574 4.51759 0.456944 4.21944C0.152315 3.9213 0 3.55185 0 3.11111C0 2.67037 0.152315 2.30093 0.456944 2.00278C0.761574 1.70463 1.13905 1.55556 1.58937 1.55556H7.94686C7.94686 1.11481 8.09917 0.74537 8.4038 0.447222C8.70843 0.149074 9.08591 0 9.53623 0H15.8937C16.344 0 16.7215 0.149074 17.0261 0.447222C17.3308 0.74537 17.4831 1.11481 17.4831 1.55556H23.8406C24.2909 1.55556 24.6684 1.70463 24.973 2.00278C25.2776 2.30093 25.43 2.67037 25.43 3.11111C25.43 3.55185 25.2776 3.9213 24.973 4.21944C24.6684 4.51759 24.2909 4.66667 23.8406 4.66667V24.8889C23.8406 25.7444 23.5293 26.4769 22.9068 27.0861C22.2843 27.6954 21.536 28 20.6618 28H4.76812ZM20.6618 4.66667H4.76812V24.8889H20.6618V4.66667ZM12.715 16.9556L15.7348 19.9111C16.0262 20.1963 16.397 20.3389 16.8473 20.3389C17.2977 20.3389 17.6685 20.1963 17.9599 19.9111C18.2513 19.6259 18.397 19.263 18.397 18.8222C18.397 18.3815 18.2513 18.0185 17.9599 17.7333L14.9401 14.7778L17.9599 11.8222C18.2513 11.537 18.397 11.1741 18.397 10.7333C18.397 10.2926 18.2513 9.92963 17.9599 9.64444C17.6685 9.35926 17.2977 9.21667 16.8473 9.21667C16.397 9.21667 16.0262 9.35926 15.7348 9.64444L12.715 12.6L9.69517 9.64444C9.40378 9.35926 9.03293 9.21667 8.58261 9.21667C8.13229 9.21667 7.76143 9.35926 7.47005 9.64444C7.17866 9.92963 7.03297 10.2926 7.03297 10.7333C7.03297 11.1741 7.17866 11.537 7.47005 11.8222L10.4899 14.7778L7.47005 17.7333C7.17866 18.0185 7.03297 18.3815 7.03297 18.8222C7.03297 19.263 7.17866 19.6259 7.47005 19.9111C7.76143 20.1963 8.13229 20.3389 8.58261 20.3389C9.03293 20.3389 9.40378 20.1963 9.69517 19.9111L12.715 16.9556Z" fill="white"/>
</svg>
